<svg xmlns="http://www.w3.org/2000/svg" viewBox="0 0 470 480" width="470" height="480"><defs><linearGradient id="lg_Osanko" x1="0" y1="0" x2="0" y2="1"><stop offset="0" stop-color="#ffeaa0"/><stop offset="1" stop-color="#e0b52a"/></linearGradient><linearGradient id="bd_Osanko" x1="0" y1="0" x2="1" y2="0"><stop offset="0" stop-color="#ecdcd6"/><stop offset="0.18" stop-color="#fff8f5"/><stop offset="0.8" stop-color="#fff8f5"/><stop offset="1" stop-color="#ecdcd6"/></linearGradient><radialGradient id="in_Osanko" cx="0.5" cy="0.32" r="0.85"><stop offset="0" stop-color="#ffeede"/><stop offset="1" stop-color="#e9c9b8"/></radialGradient><filter id="rf_Osanko" x="-8%" y="-8%" width="116%" height="116%"><feTurbulence type="fractalNoise" baseFrequency="0.013 0.018" numOctaves="2" seed="14" result="n"/><feDisplacementMap in="SourceGraphic" in2="n" scale="3" xChannelSelector="R" yChannelSelector="G"/></filter></defs><g filter="url(#rf_Osanko)"><ellipse cx="235.0" cy="438.0" rx="103.9" ry="16.7" fill="#e5c3ba" opacity="0.45"/><path d="M 129.0 256.0 L 137.0 424.0 A 98.0 14.7 0 0 0 333.0 424.0 L 341.0 256.0 A 106.0 29.7 0 0 1 129.0 256.0 Z" fill="url(#bd_Osanko)" stroke="#8a655a" stroke-width="4.5" stroke-linejoin="round"/><clipPath id="bc_Osanko"><path d="M 129.0 256.0 L 137.0 424.0 A 98.0 14.7 0 0 0 333.0 424.0 L 341.0 256.0 A 106.0 29.7 0 0 1 129.0 256.0 Z"/></clipPath><g clip-path="url(#bc_Osanko)"><path d="M 113 380 C 167 372 186 389 235 388 C 284 389 303 372 357 380 L 357 395 C 298 386 279 400 235 402 C 191 400 172 386 113 395 Z" fill="#ffeaa0"/><path d="M 113 394 C 167 386 186 401 235 400 C 284 401 303 386 357 394 L 357 407 C 298 399 279 412 235 413 C 191 412 172 399 113 407 Z" fill="#f4c430"/><path d="M 129.0 256.0 L 137.0 424.0 A 98.0 14.7 0 0 0 333.0 424.0 L 341.0 256.0 A 106.0 29.7 0 0 1 129.0 256.0 Z" fill="#ffffff" opacity="0.22" transform="translate(-40.3,0) scale(0.45,1)"/></g><g transform="translate(235.0,333.28)"><circle r="40" fill="#ffffff" stroke="#f4c430" stroke-width="7.3"/><text x="0" y="16.9" font-family="DejaVu Sans, Arial, sans-serif" font-size="50" font-weight="bold" fill="#f4c430" text-anchor="middle">3</text></g><ellipse cx="235.0" cy="256.0" rx="106.0" ry="29.7" fill="#fff8f5" stroke="#8a655a" stroke-width="4.5"/><ellipse cx="235.0" cy="260.2" rx="91.2" ry="24.9" fill="url(#in_Osanko)" stroke="#b78a7d" stroke-width="2.2"/><ellipse cx="213.8" cy="256.0" rx="42.4" ry="10.1" fill="#ffffff" opacity="0.30"/></g></svg>