<svg xmlns="http://www.w3.org/2000/svg" viewBox="0 0 470 480" width="470" height="480"><defs>
  <linearGradient id="lg_L03_pint" x1="0" y1="0" x2="0" y2="1"><stop offset="0" stop-color="#ffb9a8"/><stop offset="1" stop-color="#f07d66"/></linearGradient>
  <linearGradient id="bd_L03_pint" x1="0" y1="0" x2="1" y2="0"><stop offset="0" stop-color="#ecdcd6"/><stop offset="0.18" stop-color="#fff8f5"/><stop offset="0.8" stop-color="#fff8f5"/><stop offset="1" stop-color="#ecdcd6"/></linearGradient>
  <radialGradient id="in_L03_pint" cx="0.5" cy="0.32" r="0.85"><stop offset="0" stop-color="#ffeede"/><stop offset="1" stop-color="#e9c9b8"/></radialGradient>
  <filter id="rf_L03_pint" x="-8%" y="-8%" width="116%" height="116%"><feTurbulence type="fractalNoise" baseFrequency="0.013 0.018" numOctaves="2" seed="14" result="n"/><feDisplacementMap in="SourceGraphic" in2="n" scale="3" xChannelSelector="R" yChannelSelector="G"/></filter>
</defs><g filter="url(#rf_L03_pint)"><ellipse cx="235.0" cy="438.0" rx="103.9" ry="16.7" fill="#e5c3ba" opacity="0.45"/><path d="M 129.0 256.0 L 137.0 424.0 A 98.0 14.7 0 0 0 333.0 424.0 L 341.0 256.0 A 106.0 19.1 0 0 1 129.0 256.0 Z" fill="url(#bd_L03_pint)" stroke="#8a655a" stroke-width="4.5" stroke-linejoin="round"/><clipPath id="bc_L03_pint"><path d="M 129.0 256.0 L 137.0 424.0 A 98.0 14.7 0 0 0 333.0 424.0 L 341.0 256.0 A 106.0 19.1 0 0 1 129.0 256.0 Z"/></clipPath><g clip-path="url(#bc_L03_pint)"><path d="M 113 310 C 167 301 186 318 235 318 C 284 318 303 301 357 310 L 357 324 C 298 316 279 330 235 332 C 191 330 172 316 113 324 Z" fill="#96a8e6"/><path d="M 113 327 C 167 317 186 336 235 335 C 284 336 303 317 357 327 L 357 342 C 298 333 279 349 235 351 C 191 349 172 333 113 342 Z" fill="#ff90b0"/><path d="M 113 380 C 167 372 186 389 235 388 C 284 389 303 372 357 380 L 357 395 C 298 386 279 400 235 402 C 191 400 172 386 113 395 Z" fill="#ffa98e"/><path d="M 113 394 C 167 386 186 401 235 400 C 284 401 303 386 357 394 L 357 407 C 298 399 279 412 235 413 C 191 412 172 399 113 407 Z" fill="#b7c4ef"/><path d="M 129.0 256.0 L 137.0 424.0 A 98.0 14.7 0 0 0 333.0 424.0 L 341.0 256.0 A 106.0 19.1 0 0 1 129.0 256.0 Z" fill="#ffffff" opacity="0.22" transform="translate(-40.3,0) scale(0.45,1)"/></g><g transform="translate(235.0,346.72)">
      <circle r="36" fill="#ffffff" stroke="#ff7ea8" stroke-width="5.0"/>
      <circle r="26" fill="none" stroke="#96a8e6" stroke-width="1.8" opacity="0.6"/>
      <path d="M -12.3 15.1 L 12.3 15.1 L 0 31.0 Z" fill="#f4c58e" stroke="#8a655a" stroke-width="1.8" stroke-linejoin="round"/>
      <circle cx="-7.9" cy="2.2" r="11" fill="#ff90b0" stroke="#8a655a" stroke-width="1.8"/>
      <circle cx="8.6" cy="0.7" r="11" fill="#fff0f4" stroke="#8a655a" stroke-width="1.8"/>
      <circle cx="0" cy="-9.4" r="11" fill="#b7c4ef" stroke="#8a655a" stroke-width="1.8"/></g><path d="M 122.6 216.0 L 122.6 256.0 A 112.4 19.1 0 0 0 347.4 256.0 L 347.4 216.0 A 112.4 19.1 0 0 1 122.6 216.0 Z" fill="url(#lg_L03_pint)" stroke="#8a655a" stroke-width="4.5" stroke-linejoin="round"/><ellipse cx="235.0" cy="216.0" rx="112.4" ry="19.1" fill="#ffb9a8" stroke="#8a655a" stroke-width="4.5"/><ellipse cx="212.5" cy="213.1" rx="56.2" ry="9.6" fill="#ffffff" opacity="0.35"/></g></svg>