<svg xmlns="http://www.w3.org/2000/svg" viewBox="0 0 470 480" width="470" height="480"><defs>
  <linearGradient id="lg_L05_family" x1="0" y1="0" x2="0" y2="1"><stop offset="0" stop-color="#ffb9a8"/><stop offset="1" stop-color="#f07d66"/></linearGradient>
  <linearGradient id="bd_L05_family" x1="0" y1="0" x2="1" y2="0"><stop offset="0" stop-color="#ecdcd6"/><stop offset="0.18" stop-color="#fff8f5"/><stop offset="0.8" stop-color="#fff8f5"/><stop offset="1" stop-color="#ecdcd6"/></linearGradient>
  <radialGradient id="in_L05_family" cx="0.5" cy="0.32" r="0.85"><stop offset="0" stop-color="#ffeede"/><stop offset="1" stop-color="#e9c9b8"/></radialGradient>
  <filter id="rf_L05_family" x="-8%" y="-8%" width="116%" height="116%"><feTurbulence type="fractalNoise" baseFrequency="0.013 0.018" numOctaves="2" seed="16" result="n"/><feDisplacementMap in="SourceGraphic" in2="n" scale="3" xChannelSelector="R" yChannelSelector="G"/></filter>
</defs><g filter="url(#rf_L05_family)"><ellipse cx="235.0" cy="438.0" rx="143.1" ry="23.0" fill="#e5c3ba" opacity="0.45"/><path d="M 90.0 200.0 L 100.0 424.0 A 135.0 20.2 0 0 0 370.0 424.0 L 380.0 200.0 A 145.0 26.1 0 0 1 90.0 200.0 Z" fill="url(#bd_L05_family)" stroke="#8a655a" stroke-width="4.5" stroke-linejoin="round"/><clipPath id="bc_L05_family"><path d="M 90.0 200.0 L 100.0 424.0 A 135.0 20.2 0 0 0 370.0 424.0 L 380.0 200.0 A 145.0 26.1 0 0 1 90.0 200.0 Z"/></clipPath><g clip-path="url(#bc_L05_family)"><path d="M 68 272 C 142 260 168 283 235 283 C 302 283 328 260 402 272 L 402 291 C 322 280 295 299 235 302 C 175 299 148 280 68 291 Z" fill="#96a8e6"/><path d="M 68 294 C 142 282 168 306 235 305 C 302 306 328 282 402 294 L 402 315 C 322 303 295 324 235 326 C 175 324 148 303 68 315 Z" fill="#ff90b0"/><path d="M 68 366 C 142 355 168 377 235 376 C 302 377 328 355 402 366 L 402 385 C 322 374 295 393 235 395 C 175 393 148 374 68 385 Z" fill="#ffa98e"/><path d="M 68 384 C 142 374 168 394 235 393 C 302 394 328 374 402 384 L 402 401 C 322 391 295 408 235 410 C 175 408 148 391 68 401 Z" fill="#b7c4ef"/><path d="M 90.0 200.0 L 100.0 424.0 A 135.0 20.2 0 0 0 370.0 424.0 L 380.0 200.0 A 145.0 26.1 0 0 1 90.0 200.0 Z" fill="#ffffff" opacity="0.22" transform="translate(-55.1,0) scale(0.45,1)"/></g><g transform="translate(235.0,320.96000000000004)">
      <circle r="49" fill="#ffffff" stroke="#ff7ea8" stroke-width="6.9"/>
      <circle r="35" fill="none" stroke="#96a8e6" stroke-width="2.5" opacity="0.6"/>
      <path d="M -16.8 20.7 L 16.8 20.7 L 0 42.4 Z" fill="#f4c58e" stroke="#8a655a" stroke-width="2.5" stroke-linejoin="round"/>
      <circle cx="-10.8" cy="3.0" r="15" fill="#ff90b0" stroke="#8a655a" stroke-width="2.5"/>
      <circle cx="11.8" cy="1.0" r="15" fill="#fff0f4" stroke="#8a655a" stroke-width="2.5"/>
      <circle cx="0" cy="-12.8" r="15" fill="#b7c4ef" stroke="#8a655a" stroke-width="2.5"/></g><path d="M 81.3 152.0 L 81.3 200.0 A 153.7 26.1 0 0 0 388.7 200.0 L 388.7 152.0 A 153.7 26.1 0 0 1 81.3 152.0 Z" fill="url(#lg_L05_family)" stroke="#8a655a" stroke-width="4.5" stroke-linejoin="round"/><ellipse cx="235.0" cy="152.0" rx="153.7" ry="26.1" fill="#ffb9a8" stroke="#8a655a" stroke-width="4.5"/><ellipse cx="204.3" cy="148.1" rx="76.9" ry="13.1" fill="#ffffff" opacity="0.35"/></g></svg>