<svg xmlns="http://www.w3.org/2000/svg" viewBox="0 0 304 301" width="304" height="301"><defs><linearGradient id="wl_T01_ikko" x1="0" y1="0" x2="1" y2="0"><stop offset="0" stop-color="#ecdcd6"/><stop offset="0.2" stop-color="#fff8f5"/><stop offset="0.8" stop-color="#fff8f5"/><stop offset="1" stop-color="#ecdcd6"/></linearGradient><radialGradient id="rim_T01_ikko" cx="0.5" cy="0.4" r="0.7"><stop offset="0" stop-color="#ffffff"/><stop offset="1" stop-color="#fff8f5"/></radialGradient><radialGradient id="in_T01_ikko" cx="0.5" cy="0.34" r="0.85"><stop offset="0" stop-color="#fff3e6"/><stop offset="0.7" stop-color="#f3d8c6"/><stop offset="1" stop-color="#e2b9a4"/></radialGradient><filter id="rf_T01_ikko" x="-10%" y="-10%" width="120%" height="120%"><feTurbulence type="fractalNoise" baseFrequency="0.014 0.02" numOctaves="2" seed="14" result="n"/><feDisplacementMap in="SourceGraphic" in2="n" scale="2.6" xChannelSelector="R" yChannelSelector="G"/></filter><clipPath id="wc_T01_ikko"><path d="M 44.0 108.8 L 44.0 193.0 A 108.0 64.8 0 0 0 260.0 193.0 L 260.0 108.8 A 108.0 64.8 0 0 1 44.0 108.8 Z"/></clipPath></defs><g filter="url(#rf_T01_ikko)"><ellipse cx="152" cy="203.0" rx="110.2" ry="22.0" fill="#e5c3ba" opacity="0.40"/><path d="M 44.0 108.8 L 44.0 193.0 A 108.0 64.8 0 0 0 260.0 193.0 L 260.0 108.8 A 108.0 64.8 0 0 1 44.0 108.8 Z" fill="url(#wl_T01_ikko)" stroke="#8a655a" stroke-width="4.5" stroke-linejoin="round"/><g clip-path="url(#wc_T01_ikko)"><path d="M 45 234 C 109 230 136 238 152 234 C 168 230 195 238 259 234" fill="none" stroke="#ffd0e0" stroke-width="10.1" stroke-linecap="round"/><path d="M 45 243 C 109 238 136 247 152 243 C 168 238 195 247 259 243" fill="none" stroke="#ff8fb3" stroke-width="10.1" stroke-linecap="round"/></g><g transform="translate(152,210.66559999999998)"><circle r="32" fill="#ffffff" stroke="#ff8fb3" stroke-width="6.5"/><text x="0" y="13.6" font-family="DejaVu Sans, Arial, sans-serif" font-size="42" font-weight="bold" fill="#ff8fb3" text-anchor="middle">1</text></g><ellipse cx="152" cy="108.8" rx="108.0" ry="64.8" fill="url(#rim_T01_ikko)" stroke="#8a655a" stroke-width="4.5"/><ellipse cx="152" cy="108.8" rx="92.9" ry="55.7" fill="url(#in_T01_ikko)" stroke="#b78a7d" stroke-width="2.4"/><ellipse cx="152" cy="108.8" rx="92.9" ry="55.7" fill="url(#in_T01_ikko)"/><path d="M 68.4 100.4 A 83.6 50.2 0 0 1 235.6 100.4" fill="none" stroke="#ffffff" stroke-width="5.4" opacity="0.5"/><path d="M 75.8 119.9 A 76.2 45.7 0 0 0 228.2 119.9" fill="none" stroke="#e2b9a4" stroke-width="6.5" opacity="0.55"/></g></svg>