<svg xmlns="http://www.w3.org/2000/svg" viewBox="0 0 470 480" width="470" height="480"><defs><linearGradient id="lg_Ogoko" x1="0" y1="0" x2="0" y2="1"><stop offset="0" stop-color="#c3ddf5"/><stop offset="1" stop-color="#4e88c9"/></linearGradient><linearGradient id="bd_Ogoko" x1="0" y1="0" x2="1" y2="0"><stop offset="0" stop-color="#ecdcd6"/><stop offset="0.18" stop-color="#fff8f5"/><stop offset="0.8" stop-color="#fff8f5"/><stop offset="1" stop-color="#ecdcd6"/></linearGradient><radialGradient id="in_Ogoko" cx="0.5" cy="0.32" r="0.85"><stop offset="0" stop-color="#ffeede"/><stop offset="1" stop-color="#e9c9b8"/></radialGradient><filter id="rf_Ogoko" x="-8%" y="-8%" width="116%" height="116%"><feTurbulence type="fractalNoise" baseFrequency="0.013 0.018" numOctaves="2" seed="16" result="n"/><feDisplacementMap in="SourceGraphic" in2="n" scale="3" xChannelSelector="R" yChannelSelector="G"/></filter></defs><g filter="url(#rf_Ogoko)"><ellipse cx="235.0" cy="438.0" rx="143.1" ry="23.0" fill="#e5c3ba" opacity="0.45"/><path d="M 90.0 200.0 L 100.0 424.0 A 135.0 20.2 0 0 0 370.0 424.0 L 380.0 200.0 A 145.0 40.6 0 0 1 90.0 200.0 Z" fill="url(#bd_Ogoko)" stroke="#8a655a" stroke-width="4.5" stroke-linejoin="round"/><clipPath id="bc_Ogoko"><path d="M 90.0 200.0 L 100.0 424.0 A 135.0 20.2 0 0 0 370.0 424.0 L 380.0 200.0 A 145.0 40.6 0 0 1 90.0 200.0 Z"/></clipPath><g clip-path="url(#bc_Ogoko)"><path d="M 68 366 C 142 355 168 377 235 376 C 302 377 328 355 402 366 L 402 385 C 322 374 295 393 235 395 C 175 393 148 374 68 385 Z" fill="#c3ddf5"/><path d="M 68 384 C 142 374 168 394 235 393 C 302 394 328 374 402 384 L 402 401 C 322 391 295 408 235 410 C 175 408 148 391 68 401 Z" fill="#6ba6e0"/><path d="M 90.0 200.0 L 100.0 424.0 A 135.0 20.2 0 0 0 370.0 424.0 L 380.0 200.0 A 145.0 40.6 0 0 1 90.0 200.0 Z" fill="#ffffff" opacity="0.22" transform="translate(-55.1,0) scale(0.45,1)"/></g><g transform="translate(235.0,303.04)"><circle r="55" fill="#ffffff" stroke="#6ba6e0" stroke-width="9.9"/><text x="0" y="23.1" font-family="DejaVu Sans, Arial, sans-serif" font-size="69" font-weight="bold" fill="#6ba6e0" text-anchor="middle">5</text></g><ellipse cx="235.0" cy="200.0" rx="145.0" ry="40.6" fill="#fff8f5" stroke="#8a655a" stroke-width="4.5"/><ellipse cx="235.0" cy="205.7" rx="124.7" ry="34.1" fill="url(#in_Ogoko)" stroke="#b78a7d" stroke-width="2.2"/><ellipse cx="206.0" cy="200.0" rx="58.0" ry="13.8" fill="#ffffff" opacity="0.30"/></g></svg>